<svg xmlns="http://www.w3.org/2000/svg" enable-background="new 0 0 32 32" viewBox="0 0 32 32" id="nginx"><path fill="#E3F8FA" d="M26,32H6c-3.314,0-6-2.686-6-6V6c0-3.314,2.686-6,6-6h20c3.314,0,6,2.686,6,6v20C32,29.314,29.314,32,26,32z"></path><path fill="#26C6DA" d="M23,20v-8l-7-4l-7,4v8l7,4L23,20z M13.757,19.059c0,0.481-0.384,0.86-0.858,0.86h-0.051c-0.486,0-0.869-0.4-0.869-0.86V12.94c0-0.47,0.424-0.86,1.01-0.86c0.435,0,0.929,0.17,1.232,0.54l4.02,4.761V12.94c0-0.481,0.404-0.86,0.869-0.86h0.051c0.485,0,0.869,0.4,0.869,0.86v6.12h0.01c0,0.47-0.435,0.86-1.03,0.86c-0.425,0-0.91-0.17-1.213-0.54l-4.041-4.761V19.059z"></path></svg>